<?xml version="1.0" standalone="no"?>
<!DOCTYPE svg PUBLIC "-//W3C//DTD SVG 20010904//EN"
 "http://www.w3.org/TR/2001/REC-SVG-20010904/DTD/svg10.dtd">
<svg version="1.0" xmlns="http://www.w3.org/2000/svg"
 width="800.000000pt" height="800.000000pt" viewBox="0 0 800.000000 800.000000"
 preserveAspectRatio="xMidYMid meet">

<g transform="translate(0.000000,800.000000) scale(0.100000,-0.100000)"
fill="#000000" stroke="none">
<path d="M3950 5253 l0 -170 118 -6 c150 -7 285 -42 417 -106 182 -89 342
-229 438 -383 l42 -67 188 -1 c103 0 187 2 187 4 0 12 -58 131 -92 191 -93
159 -266 346 -419 452 -98 68 -257 146 -369 183 -127 41 -236 61 -382 67
l-128 6 0 -170z"/>
<path d="M3519 5336 c-37 -13 -109 -46 -160 -72 l-94 -49 -3 -700 c-1 -435 2
-721 8 -755 31 -172 198 -369 395 -468 124 -62 195 -77 355 -76 135 0 151 2
240 32 123 41 255 127 339 219 l61 68 -372 11 c-346 9 -377 12 -428 32 -77 31
-155 87 -194 141 -71 98 -66 28 -66 876 0 421 -3 765 -7 765 -5 -1 -38 -11
-74 -24z"/>
<path d="M2895 4896 c-225 -316 -315 -574 -315 -901 0 -538 298 -1024 778
-1268 224 -115 450 -164 707 -154 236 10 398 52 605 158 399 205 683 593 755
1035 14 88 21 367 9 398 -6 14 -80 16 -740 16 l-734 0 0 -170 0 -170 565 0
566 0 -7 -37 c-44 -259 -201 -513 -417 -674 -371 -277 -881 -291 -1262 -36
-157 105 -287 251 -365 412 -101 206 -119 305 -121 665 -3 433 -13 742 -24
726z"/>
</g>
</svg>
